# xmcd
#
# Track frame offsets:
#	150
#	12703
#	25030
#	39919
#	51321
#	66657
#	79334
#	91339
#	104529
#	116216
#	128518
#	141801
#
# Disc length: 2029 seconds
#
# Revision: 0
# Processed by: cddbd v1.5.1PL0 Copyright (c) Steve Scherf et al.
# Submitted via: dBpowerAMP V4.0
#
DISCID=a807eb0c
DTITLE=Kenny Rogers and Dolly Parton - Together
DYEAR=1900
DGENRE=Country
TTITLE0=Reuben James
TTITLE1=Makin' Believe
TTITLE2=Heed to Call
TTITLE3=Honky Tonk Angel
TTITLE4=For the Good Times
TTITLE5=Two Little Orphans
TTITLE6=Elvira
TTITLE7=Little Blossom
TTITLE8=Me and Bobby McGee
TTITLE9=Letter to Heaven
TTITLE10=Ruby, Don't Take Your Love to Town
TTITLE11=Please Release Me
EXTD=
EXTT0=
EXTT1=
EXTT2=
EXTT3=
EXTT4=
EXTT5=
EXTT6=
EXTT7=
EXTT8=
EXTT9=
EXTT10=
EXTT11=
PLAYORDER=
